<svg width="40" height="40" viewBox="0 0 40 40" fill="none" xmlns="http://www.w3.org/2000/svg">
<g clip-path="url(#clip0_4001_1281)">
<path d="M23.5547 0.76268C26.837 0.197102 30.7763 1.69938 34.0664 4.90623C35.669 6.46863 36.8242 7.83857 37.5605 9.03514C38.2993 10.2358 38.5901 11.219 38.5361 12.0224C38.4927 12.6668 38.2187 13.2337 37.7197 13.6855L37.4922 13.8721C37.1635 14.1158 36.7462 14.212 36.1924 14.1973C35.6289 14.1822 34.9881 14.0557 34.2402 13.9062C32.5227 13.5627 30.1884 13.0812 27.9629 14.1699C26.7766 14.7496 26.0206 15.1674 25.5371 15.4599L25.5156 15.3564L25.0322 15.4531L25.0195 15.4551L24.2412 15.6113L24.7178 16.2461C24.7223 16.2521 24.7348 16.268 24.748 16.2842L24.7998 16.3476L24.8984 16.4883C25.1993 16.9186 25.4369 17.3977 25.6016 17.914C25.848 18.6872 25.9126 19.488 25.7998 20.2656L25.7334 20.7236L26.1846 20.8252C27.0062 21.0106 28.6635 21.4491 30.4004 22.2715C32.1435 23.0968 33.9202 24.2868 35.0342 25.9531C36.0646 27.4941 36.2603 29.3864 35.5518 31.3066C34.3987 34.4322 31.129 37.0927 26.707 38.3379C24.27 39.0249 22.3772 39.3545 20.9414 39.3545C19.8242 39.3545 19.023 39.1546 18.46 38.8056H18.459C17.904 38.4624 17.5208 37.9468 17.3115 37.1826L17.2324 36.8398C17.1525 36.4185 17.252 36.0143 17.5059 35.5596C17.7676 35.0908 18.1662 34.616 18.6396 34.0547V34.0537C19.6815 32.8172 21.1028 31.1515 21.2705 28.7197L21.5068 25.2998L21.5459 24.7236L20.9707 24.7666C20.1319 24.829 19.2886 24.6896 18.502 24.3496L18.1689 24.1914C17.7077 23.9527 17.2912 23.6539 16.9287 23.3056L16.5684 22.959L16.2227 23.3193C15.5372 24.0326 14.3249 25.1862 12.8037 26.1904C11.3735 27.1345 9.70172 27.9262 7.95703 28.123L7.60645 28.1543C5.75764 28.2734 4.01986 27.4991 2.71191 25.9258C0.581183 23.3639 -0.0877221 19.2028 1.04492 14.751C1.58442 12.6286 2.17979 10.9723 2.83301 9.74901C3.4883 8.52182 4.17904 7.77153 4.88867 7.39842C5.561 7.04509 6.28718 7.00269 7.08301 7.29686C7.48226 7.44408 7.78085 7.73391 8.0459 8.18065C8.31874 8.64061 8.53014 9.21956 8.77832 9.90428C9.32908 11.4245 10.0644 13.4859 12.0918 14.8515L15.3232 17.0273L15.7666 17.3252L16.0352 16.8633C16.6597 15.7884 17.6277 14.9809 18.7998 14.5596L19.2461 14.3994L19.1094 13.9453C18.8436 13.0598 18.4226 11.4174 18.291 9.55077C18.1673 7.79499 18.3032 5.88211 19.0264 4.21776L19.1787 3.88768C19.9977 2.22514 21.5377 1.10941 23.5547 0.76268ZM20.5898 14.7549C20.1029 14.7549 19.6153 14.8304 19.1406 14.9814C17.9311 15.3667 16.9415 16.2024 16.3594 17.3301C15.813 18.3874 15.6844 19.5872 15.9883 20.7295L16.0547 20.958C16.416 22.0917 17.173 23.0314 18.1953 23.624L18.4033 23.7383C19.4602 24.2846 20.6608 24.4133 21.8027 24.1094L22.0303 24.043C23.1643 23.6817 24.1046 22.9249 24.6973 21.9023L24.8105 21.6943C25.3933 20.5664 25.5021 19.2768 25.1162 18.0674C24.7309 16.8578 23.8944 15.8691 22.7666 15.2871C22.0841 14.9354 21.3409 14.7549 20.5898 14.7549Z" fill="white" stroke="#2E475D"/>
<path d="M12.4747 8.72123L11.5703 7.51311C12.9228 6.50061 14.4234 5.73248 16.0303 5.23061L16.4803 6.67123C15.0378 7.12248 13.6897 7.81186 12.4747 8.72123Z" fill="white"/>
<path d="M10.0438 5.03872L9.15625 3.81747C11.2638 2.28684 13.6144 1.21622 16.1438 0.636215L16.4812 2.10747C14.1512 2.64184 11.9856 3.62809 10.0438 5.03872Z" fill="white"/>
<path d="M14.6997 33.32C13.1459 32.6544 11.7303 31.7387 10.4922 30.5981L11.5153 29.4881C12.6266 30.5119 13.8978 31.3344 15.2941 31.9319L14.6997 33.32Z" fill="white"/>
<path d="M12.7064 37.26C10.327 36.2 8.22453 34.6994 6.45703 32.7994L7.56266 31.7712C9.19078 33.5212 11.1277 34.9044 13.3202 35.8812L12.7064 37.26Z" fill="white"/>
<path d="M35.2303 22.71L33.7578 22.38C34.0884 20.9043 34.1647 19.3925 33.9847 17.8856L35.4834 17.7062C35.6834 19.3837 35.5984 21.0675 35.2303 22.71Z" fill="white"/>
<path d="M39.1541 25.1044L37.7109 24.6612C38.4128 22.3756 38.6416 20.0062 38.3909 17.62L39.8922 17.4625C40.1641 20.0525 39.9159 22.6237 39.1541 25.1044Z" fill="white"/>
<path d="M23.5547 0.76268C26.837 0.197102 30.7763 1.69938 34.0664 4.90623C35.669 6.46863 36.8242 7.83857 37.5605 9.03514C38.2993 10.2358 38.5901 11.219 38.5361 12.0224C38.4927 12.6668 38.2187 13.2337 37.7197 13.6855L37.4922 13.8721C37.1635 14.1158 36.7462 14.212 36.1924 14.1973C35.6289 14.1822 34.9881 14.0557 34.2402 13.9062C32.5227 13.5627 30.1884 13.0812 27.9629 14.1699C26.7766 14.7496 26.0206 15.1674 25.5371 15.4599L25.5156 15.3564L25.0322 15.4531L25.0195 15.4551L24.2412 15.6113L24.7178 16.2461C24.7223 16.2521 24.7348 16.268 24.748 16.2842L24.7998 16.3476L24.8984 16.4883C25.1993 16.9186 25.4369 17.3977 25.6016 17.914C25.848 18.6872 25.9126 19.488 25.7998 20.2656L25.7334 20.7236L26.1846 20.8252C27.0062 21.0106 28.6635 21.4491 30.4004 22.2715C32.1435 23.0968 33.9202 24.2868 35.0342 25.9531C36.0646 27.4941 36.2603 29.3864 35.5518 31.3066C34.3987 34.4322 31.129 37.0927 26.707 38.3379C24.27 39.0249 22.3772 39.3545 20.9414 39.3545C19.8242 39.3545 19.023 39.1546 18.46 38.8056H18.459C17.904 38.4624 17.5208 37.9468 17.3115 37.1826L17.2324 36.8398C17.1525 36.4185 17.252 36.0143 17.5059 35.5596C17.7676 35.0908 18.1662 34.616 18.6396 34.0547V34.0537C19.6815 32.8172 21.1028 31.1515 21.2705 28.7197L21.5068 25.2998L21.5459 24.7236L20.9707 24.7666C20.1319 24.829 19.2886 24.6896 18.502 24.3496L18.1689 24.1914C17.7077 23.9527 17.2912 23.6539 16.9287 23.3056L16.5684 22.959L16.2227 23.3193C15.5372 24.0326 14.3249 25.1862 12.8037 26.1904C11.3735 27.1345 9.70172 27.9262 7.95703 28.123L7.60645 28.1543C5.75764 28.2734 4.01986 27.4991 2.71191 25.9258C0.581183 23.3639 -0.0877221 19.2028 1.04492 14.751C1.58442 12.6286 2.17979 10.9723 2.83301 9.74901C3.4883 8.52182 4.17904 7.77153 4.88867 7.39842C5.561 7.04509 6.28718 7.00269 7.08301 7.29686C7.48226 7.44408 7.78085 7.73391 8.0459 8.18065C8.31874 8.64061 8.53014 9.21956 8.77832 9.90428C9.32908 11.4245 10.0644 13.4859 12.0918 14.8515L15.3232 17.0273L15.7666 17.3252L16.0352 16.8633C16.6597 15.7884 17.6277 14.9809 18.7998 14.5596L19.2461 14.3994L19.1094 13.9453C18.8436 13.0598 18.4226 11.4174 18.291 9.55077C18.1673 7.79499 18.3032 5.88211 19.0264 4.21776L19.1787 3.88768C19.9977 2.22514 21.5377 1.10941 23.5547 0.76268Z" fill="white" stroke="#2E475D"/>
<path d="M12.4747 8.72123L11.5703 7.51311C12.9228 6.50061 14.4234 5.73248 16.0303 5.23061L16.4803 6.67123C15.0378 7.12248 13.6897 7.81186 12.4747 8.72123Z" fill="white"/>
<path d="M10.0438 5.03872L9.15625 3.81747C11.2638 2.28684 13.6144 1.21622 16.1438 0.636215L16.4812 2.10747C14.1512 2.64184 11.9856 3.62809 10.0438 5.03872Z" fill="white"/>
<path d="M14.6997 33.32C13.1459 32.6544 11.7303 31.7387 10.4922 30.5981L11.5153 29.4881C12.6266 30.5119 13.8978 31.3344 15.2941 31.9319L14.6997 33.32Z" fill="white"/>
<path d="M12.7064 37.26C10.327 36.2 8.22453 34.6994 6.45703 32.7994L7.56266 31.7712C9.19078 33.5212 11.1277 34.9044 13.3202 35.8812L12.7064 37.26Z" fill="white"/>
<path d="M35.2303 22.71L33.7578 22.38C34.0884 20.9043 34.1647 19.3925 33.9847 17.8856L35.4834 17.7062C35.6834 19.3837 35.5984 21.0675 35.2303 22.71Z" fill="white"/>
<path d="M39.1541 25.1044L37.7109 24.6612C38.4128 22.3756 38.6416 20.0062 38.3909 17.62L39.8922 17.4625C40.1641 20.0525 39.9159 22.6237 39.1541 25.1044Z" fill="white"/>
<circle cx="20.6264" cy="19.4445" r="5.52481" fill="white" stroke="#2E475D"/>
</g>
<defs>
<clipPath id="clip0_4001_1281">
<rect width="40" height="40" fill="white"/>
</clipPath>
</defs>
</svg>
