<svg width="40" height="40" viewBox="0 0 40 40" fill="none" xmlns="http://www.w3.org/2000/svg">
<path d="M33.725 19.1352C33.7187 19.079 33.7062 19.0227 33.6875 18.9665C33.675 18.9415 33.6687 18.9165 33.65 18.8915C33.625 18.8352 33.5812 18.7915 33.5375 18.7477C33.525 18.7352 33.5187 18.7165 33.5063 18.704C33.5 18.6977 33.4937 18.6977 33.4875 18.6977C33.4375 18.654 33.3813 18.629 33.3188 18.6102C33.2938 18.5977 33.275 18.5852 33.25 18.579C33.2375 18.579 33.2312 18.5727 33.225 18.5727L27.725 17.5602L28.4312 17.3915C28.7125 17.3227 28.9125 17.0727 28.9125 16.7852V6.36024C28.9125 6.36024 28.9 6.32274 28.9 6.31024C28.8937 6.25399 28.8813 6.19774 28.8625 6.14774C28.85 6.11649 28.8437 6.09149 28.825 6.06024C28.8 6.00399 28.7562 5.96024 28.7125 5.91649C28.6937 5.90399 28.6875 5.87899 28.675 5.86649C28.6688 5.86649 28.6625 5.86649 28.6625 5.86024C28.5938 5.81024 28.5125 5.76649 28.4188 5.74774L20.6625 4.01649C20.5688 3.99149 20.475 3.99774 20.3813 4.01649L13.0812 5.74774H13.075C12.9875 5.77274 12.9125 5.81024 12.8437 5.86649C12.8375 5.86649 12.8313 5.86649 12.8313 5.87274C12.8187 5.87899 12.8062 5.90399 12.7937 5.91649C12.75 5.96024 12.7063 6.01024 12.675 6.06649C12.6625 6.09149 12.6562 6.12274 12.6437 6.15399C12.625 6.20399 12.6125 6.25399 12.6062 6.31024C12.6062 6.32899 12.5938 6.34149 12.5938 6.36024V16.7852C12.5938 17.079 12.8 17.329 13.0875 17.3915L13.2937 17.4415L7.50625 18.5727C7.50625 18.5727 7.4875 18.579 7.48125 18.5852C7.45625 18.5852 7.4375 18.604 7.4125 18.6102C7.35 18.6352 7.29375 18.6602 7.24375 18.6977C7.2375 18.704 7.23125 18.704 7.225 18.7102C7.2125 18.7227 7.20625 18.7415 7.1875 18.754C7.15 18.7977 7.1125 18.8415 7.08125 18.8915C7.06875 18.9165 7.05625 18.9477 7.05 18.9727C7.03125 19.029 7.01875 19.079 7.0125 19.1352C7.0125 19.154 7 19.1665 7 19.1852V33.7477C7 34.0477 7.2125 34.304 7.5125 34.3602L20.6375 36.779C20.675 36.7852 20.7188 36.7915 20.7563 36.7915C20.7937 36.7915 20.8313 36.7852 20.875 36.779L33.2312 34.3602C33.525 34.304 33.7375 34.0415 33.7375 33.7477V19.1852C33.7375 19.1852 33.725 19.154 33.725 19.1352ZM20.5313 5.26649L25.5 6.37274L20.975 7.44774L16.0062 6.34149L20.5313 5.26649ZM27.6625 7.14774V16.2915L24.5625 17.0227C24.5625 17.0227 24.55 17.029 24.5375 17.029L21.6063 17.7227V8.58524L27.6625 7.14774ZM13.8438 7.13524L20.3563 8.59149V17.7352L16.4875 16.8727C16.4875 16.8727 16.475 16.8665 16.4625 16.8665L13.8438 16.2852V7.13524ZM20.1313 35.4102L8.25 33.2227V19.9352L20.1313 22.129V35.4102ZM20.75 20.9727L10.9687 19.1665L16.3312 18.1165L20.8438 19.1227C20.8938 19.1352 20.9375 19.1415 20.9813 19.1415C21.0313 19.1415 21.0813 19.1415 21.125 19.1227L24.7062 18.2727L29.7625 19.204L20.75 20.9727ZM32.4875 33.229L21.3813 35.404V22.1227L32.4875 19.9477V33.229Z" fill="#2E475D"/>
<path d="M25.5016 6.37273L20.9766 7.44773L16.0078 6.34148L20.5328 5.26648L25.5016 6.37273Z" fill="#D5D8DC"/>
<path d="M27.6617 7.14771V16.2915L24.5617 17.0227C24.5617 17.0227 24.5492 17.029 24.5367 17.029L21.6055 17.7227V8.58521L27.6617 7.14771Z" fill="white"/>
<path d="M20.3562 8.59144V17.7352L16.4875 16.8727C16.4875 16.8727 16.475 16.8664 16.4625 16.8664L13.8438 16.2852V7.13519L20.3562 8.59144Z" fill="white"/>
<path d="M29.7625 19.204L20.75 20.9727L10.9688 19.1665L16.3313 18.1165L20.8438 19.1227C20.8938 19.1352 20.9375 19.1415 20.9813 19.1415C21.0313 19.1415 21.0813 19.1415 21.125 19.1227L24.7063 18.2727L29.7625 19.204Z" fill="#D5D8DC"/>
<path d="M32.4891 19.9477V33.229L21.3828 35.404V22.1227L32.4891 19.9477Z" fill="white"/>
<path d="M20.1313 22.129V35.4102L8.25 33.2227V19.9352L20.1313 22.129Z" fill="white"/>
</svg>
