<svg width="40" height="40" viewBox="0 0 40 40" fill="none" xmlns="http://www.w3.org/2000/svg">
<g clip-path="url(#clip0_4001_3162)">
<path d="M23.1885 0.810547C22.7676 1.89381 20.2941 9.35699 28.1475 17.374C32.3164 21.6295 33.6613 27.1684 31.8184 31.8252C30.1043 36.1587 25.8563 38.9503 20.3203 39.1924L20.2959 39.1934L20.2715 39.1963C20.1633 39.2083 19.7372 39.25 19.1025 39.25C17.0947 39.25 13.2184 38.8252 10.459 35.9521C7.72259 33.103 6.73535 28.5171 7.78516 22.1006C8.83678 15.6731 12.5504 10.4238 16.1191 6.71387C19.4163 3.28632 22.5424 1.2218 23.1885 0.810547Z" fill="white" stroke="#2E475D" stroke-width="1.5"/>
<path d="M23.3688 39.43L22.3614 38.4313C24.9457 35.8263 25.9301 32.5963 25.2882 28.8313C25.1413 27.9713 24.922 27.1782 24.687 26.4888C24.4032 27.7044 23.7745 29.0769 22.4613 30.2482C22.2332 30.4513 21.9001 30.4863 21.6357 30.3338C21.3707 30.1813 21.2326 29.8763 21.2938 29.5775C21.967 26.2669 19.232 21.9582 18.0757 20.3232C16.992 21.5844 14.6738 24.7444 14.5076 28.8375C14.2388 35.4844 16.4432 38.4694 16.4657 38.4988L15.3426 39.3657C15.2388 39.2319 12.7982 35.9994 13.0907 28.78C13.3301 22.8644 17.472 18.8657 17.6488 18.6982C17.7932 18.5613 17.9882 18.4894 18.1857 18.505C18.3845 18.5188 18.5676 18.615 18.6913 18.77C18.8638 18.9857 22.3151 23.3563 22.7676 27.6069C23.8007 25.6713 23.4182 23.6913 23.3963 23.5857C23.3276 23.2494 23.5101 22.9107 23.8288 22.7838C24.1488 22.6588 24.512 22.7757 24.6932 23.0675C24.7513 23.1594 30.3532 32.39 23.3688 39.43Z" fill="#2E475D"/>
</g>
<defs>
<clipPath id="clip0_4001_3162">
<rect width="40" height="40" fill="white"/>
</clipPath>
</defs>
</svg>
