<svg width="40" height="40" viewBox="0 0 40 40" fill="none" xmlns="http://www.w3.org/2000/svg">
<g clip-path="url(#clip0_4001_539)">
<rect x="5.25" y="0.762192" width="29.5" height="34.5" rx="4.25" fill="white" stroke="#2E475D" stroke-width="1.5"/>
<path d="M19.9991 20.585C15.6616 20.585 12.1328 17.0562 12.1328 12.7187C12.1328 8.38124 15.6616 4.85249 19.9991 4.85249C24.3366 4.85249 27.8653 8.38124 27.8653 12.7187C27.8653 17.0562 24.3366 20.585 19.9991 20.585ZM19.9991 6.06999C16.3328 6.06999 13.3503 9.05249 13.3503 12.7187C13.3503 16.385 16.3328 19.3675 19.9991 19.3675C23.6653 19.3675 26.6478 16.385 26.6478 12.7187C26.6478 9.05249 23.6653 6.06999 19.9991 6.06999Z" fill="#2E475D"/>
<path d="M25.6419 12.7187H24.4244C24.4244 10.2794 22.44 8.29498 20.0006 8.29498C17.5612 8.29498 15.5769 10.2794 15.5769 12.7187H14.3594C14.3594 9.60811 16.89 7.07748 20.0006 7.07748C23.1112 7.07748 25.6419 9.60811 25.6419 12.7187Z" fill="#2E475D"/>
<path d="M18.9839 8.99726L17.8516 9.44496L20.0953 15.12L21.2277 14.6723L18.9839 8.99726Z" fill="#2E475D"/>
<path d="M28.25 35.6534V37.9034C28.25 38.5938 27.6904 39.1534 27 39.1534H14C13.3096 39.1534 12.75 38.5938 12.75 37.9034V35.6534H28.25Z" fill="white" stroke="#2E475D" stroke-width="1.5"/>
<path d="M15.5506 31.5525C13.8425 31.5525 12.4531 30.1356 12.4531 28.3944C12.4531 26.6531 13.8425 25.2356 15.5506 25.2356C17.2588 25.2356 18.6481 26.6525 18.6481 28.3944C18.6481 30.1363 17.2581 31.5525 15.5506 31.5525ZM15.5506 26.4538C14.5144 26.4538 13.6706 27.3244 13.6706 28.395C13.6706 29.465 14.5138 30.3356 15.5506 30.3356C16.5875 30.3356 17.4306 29.465 17.4306 28.395C17.43 27.3244 16.5869 26.4538 15.5506 26.4538Z" fill="#2E475D"/>
<path d="M16.9012 26.4064L14.0977 28.8419L14.8961 29.7609L17.6996 27.3255L16.9012 26.4064Z" fill="#2E475D"/>
<path d="M25.1828 31.5525C23.4753 31.5525 22.0859 30.1356 22.0859 28.3944C22.0859 26.6531 23.4753 25.2356 25.1828 25.2356C26.8909 25.2356 28.2803 26.6525 28.2803 28.3944C28.2803 30.1363 26.8909 31.5525 25.1828 31.5525ZM25.1828 26.4538C24.1466 26.4538 23.3034 27.3244 23.3034 28.395C23.3034 29.465 24.1466 30.3356 25.1828 30.3356C26.2191 30.3356 27.0628 29.465 27.0628 28.395C27.0628 27.3244 26.2197 26.4538 25.1828 26.4538Z" fill="#2E475D"/>
<path d="M26.534 26.4065L23.7305 28.8419L24.5289 29.761L27.3324 27.3255L26.534 26.4065Z" fill="#2E475D"/>
</g>
<defs>
<clipPath id="clip0_4001_539">
<rect width="40" height="40" fill="white"/>
</clipPath>
</defs>
</svg>
