<svg width="40" height="40" viewBox="0 0 40 40" fill="none" xmlns="http://www.w3.org/2000/svg">
<path d="M26.3271 11.2532V15.6721C27.5524 16.4364 28.635 17.4256 29.5049 18.5735H36.7539V20.2395H36.7529V32.9202H29.5029C27.2647 35.8672 23.7763 37.6116 20.0576 37.6116C16.3417 37.6115 12.8559 35.8671 10.6182 32.9202H3.36719V18.5774H5.20801L10.6152 18.5735C11.4857 17.425 12.569 16.436 13.7939 15.6721V11.2532H26.3271Z" fill="white" stroke="#2E475D"/>
<path d="M23.7594 5.92562H22.5938V9.88312H23.7594V5.92562Z" fill="#2E475D"/>
<path d="M17.525 5.92562H16.3594V9.88312H17.525V5.92562Z" fill="#2E475D"/>
<path d="M27.1328 9.85191V12.4183H12.9883V9.85191H27.1328Z" fill="white" stroke="#2E475D"/>
<path d="M8.29492 3.38939H31.8223C32.5104 3.38939 33.0703 3.94975 33.0703 4.63744V4.70775L33.0645 4.83568C33.0005 5.46388 32.4674 5.9558 31.8223 5.9558H8.29492C7.60684 5.95575 7.04688 5.39545 7.04688 4.70775V4.63744C7.04692 3.94938 7.60726 3.38943 8.29492 3.38939Z" fill="white" stroke="#2E475D"/>
<path d="M1.16602 17.8082H3.28418C3.65097 17.8084 3.94922 18.1073 3.94922 18.4742V32.9449C3.94922 33.3107 3.65069 33.6097 3.28418 33.6099H1.16602C0.79919 33.6099 0.500255 33.3116 0.5 32.9449V18.4742C0.5 18.1072 0.799033 17.8082 1.16602 17.8082Z" fill="white" stroke="#2E475D"/>
<path d="M36.7168 17.8082H38.835C39.2017 17.8084 39.5 18.1073 39.5 18.4742V32.9449C39.5 33.3107 39.2015 33.6097 38.835 33.6099H36.7168C36.35 33.6099 36.051 33.3116 36.0508 32.9449V18.4742C36.0508 18.1072 36.3498 17.8082 36.7168 17.8082Z" fill="white" stroke="#2E475D"/>
<rect x="16.5" y="6.05627" width="7" height="3.79361" fill="white" stroke="#2E475D"/>
</svg>
