<svg width="130" height="24" viewBox="0 0 130 24" fill="none" xmlns="http://www.w3.org/2000/svg">
<path d="M8.24032 7.33998L1.86032 8.26498L1.74732 8.28798C1.57626 8.3334 1.42032 8.42339 1.29542 8.54879C1.17051 8.67418 1.08113 8.83047 1.03639 9.00171C0.991645 9.17295 0.993152 9.35299 1.04075 9.52346C1.08835 9.69392 1.18034 9.8487 1.30732 9.97198L5.92932 14.471L4.83932 20.826L4.82632 20.936C4.81585 21.1129 4.85259 21.2894 4.93277 21.4475C5.01296 21.6055 5.13371 21.7395 5.28266 21.8355C5.43161 21.9315 5.60341 21.9863 5.78047 21.9941C5.95753 22.0019 6.13349 21.9625 6.29032 21.88L11.9963 18.88L17.6893 21.88L17.7893 21.926C17.9544 21.991 18.1338 22.0109 18.3091 21.9837C18.4844 21.9566 18.6493 21.8832 18.7869 21.7712C18.9245 21.6593 19.0299 21.5127 19.0922 21.3466C19.1544 21.1805 19.1714 21.0008 19.1413 20.826L18.0503 14.471L22.6743 9.97098L22.7523 9.88598C22.8637 9.74875 22.9368 9.58444 22.964 9.40978C22.9913 9.23512 22.9717 9.05636 22.9074 8.89171C22.8431 8.72707 22.7362 8.58242 22.5978 8.4725C22.4594 8.36258 22.2943 8.29132 22.1193 8.26598L15.7393 7.33998L12.8873 1.55998C12.8048 1.39252 12.677 1.2515 12.5185 1.15289C12.36 1.05428 12.177 1.00201 11.9903 1.00201C11.8036 1.00201 11.6207 1.05428 11.4621 1.15289C11.3036 1.2515 11.1758 1.39252 11.0933 1.55998L8.24032 7.33998Z" fill="#FF6C03"/>
<path d="M34.6427 7.33998L28.2627 8.26498L28.1497 8.28798C27.9786 8.3334 27.8227 8.42339 27.6978 8.54879C27.5729 8.67418 27.4835 8.83047 27.4387 9.00171C27.394 9.17295 27.3955 9.35299 27.4431 9.52346C27.4907 9.69392 27.5827 9.8487 27.7097 9.97198L32.3317 14.471L31.2417 20.826L31.2287 20.936C31.2182 21.1129 31.2549 21.2894 31.3351 21.4475C31.4153 21.6055 31.5361 21.7395 31.685 21.8355C31.834 21.9315 32.0058 21.9863 32.1828 21.9941C32.3599 22.0019 32.5358 21.9625 32.6927 21.88L38.3987 18.88L44.0917 21.88L44.1917 21.926C44.3567 21.991 44.5361 22.0109 44.7114 21.9837C44.8867 21.9566 45.0516 21.8832 45.1893 21.7712C45.3269 21.6593 45.4322 21.5127 45.4945 21.3466C45.5568 21.1805 45.5737 21.0008 45.5437 20.826L44.4527 14.471L49.0767 9.97098L49.1547 9.88598C49.2661 9.74875 49.3391 9.58444 49.3664 9.40978C49.3936 9.23512 49.3741 9.05636 49.3098 8.89171C49.2454 8.72707 49.1386 8.58242 49.0002 8.4725C48.8617 8.36258 48.6966 8.29132 48.5217 8.26598L42.1417 7.33998L39.2897 1.55998C39.2071 1.39252 39.0794 1.2515 38.9209 1.15289C38.7623 1.05428 38.5794 1.00201 38.3927 1.00201C38.206 1.00201 38.023 1.05428 37.8645 1.15289C37.706 1.2515 37.5782 1.39252 37.4957 1.55998L34.6427 7.33998Z" fill="#FF6C03"/>
<path d="M61.0411 7.33998L54.6611 8.26498L54.5481 8.28798C54.377 8.3334 54.2211 8.42339 54.0962 8.54879C53.9713 8.67418 53.8819 8.83047 53.8372 9.00171C53.7924 9.17295 53.7939 9.35299 53.8415 9.52346C53.8891 9.69392 53.9811 9.8487 54.1081 9.97198L58.7301 14.471L57.6401 20.826L57.6271 20.936C57.6166 21.1129 57.6534 21.2894 57.7336 21.4475C57.8137 21.6055 57.9345 21.7395 58.0834 21.8355C58.2324 21.9315 58.4042 21.9863 58.5813 21.9941C58.7583 22.0019 58.9343 21.9625 59.0911 21.88L64.7971 18.88L70.4901 21.88L70.5901 21.926C70.7552 21.991 70.9346 22.0109 71.1099 21.9837C71.2852 21.9566 71.4501 21.8832 71.5877 21.7712C71.7253 21.6593 71.8307 21.5127 71.8929 21.3466C71.9552 21.1805 71.9722 21.0008 71.9421 20.826L70.8511 14.471L75.4751 9.97098L75.5531 9.88598C75.6645 9.74875 75.7376 9.58444 75.7648 9.40978C75.7921 9.23512 75.7725 9.05636 75.7082 8.89171C75.6439 8.72707 75.537 8.58242 75.3986 8.4725C75.2602 8.36258 75.095 8.29132 74.9201 8.26598L68.5401 7.33998L65.6881 1.55998C65.6056 1.39252 65.4778 1.2515 65.3193 1.15289C65.1608 1.05428 64.9778 1.00201 64.7911 1.00201C64.6044 1.00201 64.4214 1.05428 64.2629 1.15289C64.1044 1.2515 63.9766 1.39252 63.8941 1.55998L61.0411 7.33998Z" fill="#FF6C03"/>
<path d="M87.4434 7.33998L81.0634 8.26498L80.9504 8.28798C80.7794 8.3334 80.6234 8.42339 80.4985 8.54879C80.3736 8.67418 80.2843 8.83047 80.2395 9.00171C80.1948 9.17295 80.1963 9.35299 80.2439 9.52346C80.2915 9.69392 80.3835 9.8487 80.5104 9.97198L85.1324 14.471L84.0424 20.826L84.0294 20.936C84.019 21.1129 84.0557 21.2894 84.1359 21.4475C84.2161 21.6055 84.3368 21.7395 84.4858 21.8355C84.6347 21.9315 84.8065 21.9863 84.9836 21.9941C85.1607 22.0019 85.3366 21.9625 85.4934 21.88L91.1994 18.88L96.8924 21.88L96.9924 21.926C97.1575 21.991 97.3369 22.0109 97.5122 21.9837C97.6875 21.9566 97.8524 21.8832 97.99 21.7712C98.1277 21.6593 98.233 21.5127 98.2953 21.3466C98.3576 21.1805 98.3745 21.0008 98.3444 20.826L97.2534 14.471L101.877 9.97098L101.955 9.88598C102.067 9.74875 102.14 9.58444 102.167 9.40978C102.194 9.23512 102.175 9.05636 102.111 8.89171C102.046 8.72707 101.939 8.58242 101.801 8.4725C101.662 8.36258 101.497 8.29132 101.322 8.26598L94.9424 7.33998L92.0905 1.55998C92.0079 1.39252 91.8802 1.2515 91.7216 1.15289C91.5631 1.05428 91.3801 1.00201 91.1934 1.00201C91.0068 1.00201 90.8238 1.05428 90.6653 1.15289C90.5067 1.2515 90.379 1.39252 90.2964 1.55998L87.4434 7.33998Z" fill="#FF6C03"/>
<path d="M113.842 7.33998L107.462 8.26498L107.349 8.28798C107.178 8.3334 107.022 8.42339 106.897 8.54879C106.772 8.67418 106.683 8.83047 106.638 9.00171C106.593 9.17295 106.595 9.35299 106.642 9.52346C106.69 9.69392 106.782 9.8487 106.909 9.97198L111.531 14.471L110.441 20.826L110.428 20.936C110.417 21.1129 110.454 21.2894 110.534 21.4475C110.615 21.6055 110.735 21.7395 110.884 21.8355C111.033 21.9315 111.205 21.9863 111.382 21.9941C111.559 22.0019 111.735 21.9625 111.892 21.88L117.598 18.88L123.291 21.88L123.391 21.926C123.556 21.991 123.735 22.0109 123.911 21.9837C124.086 21.9566 124.251 21.8832 124.388 21.7712C124.526 21.6593 124.631 21.5127 124.694 21.3466C124.756 21.1805 124.773 21.0008 124.743 20.826L123.652 14.471L128.276 9.97098L128.354 9.88598C128.465 9.74875 128.538 9.58444 128.566 9.40978C128.593 9.23512 128.573 9.05636 128.509 8.89171C128.445 8.72707 128.338 8.58242 128.199 8.4725C128.061 8.36258 127.896 8.29132 127.721 8.26598L121.341 7.33998L118.489 1.55998C118.406 1.39252 118.279 1.2515 118.12 1.15289C117.962 1.05428 117.779 1.00201 117.592 1.00201C117.405 1.00201 117.222 1.05428 117.064 1.15289C116.905 1.2515 116.777 1.39252 116.695 1.55998L113.842 7.33998Z" fill="#FF6C03"/>
</svg>
